<svg xmlns="http://www.w3.org/2000/svg" viewBox="0 0 400 300" class="w-full h-full">
  <defs>
    <linearGradient id="bg" x1="0%" y1="0%" x2="100%" y2="100%">
      <stop offset="0%" style="stop-color:#f1f5f9;stop-opacity:1" />
      <stop offset="100%" style="stop-color:#e2e8f0;stop-opacity:1" />
    </linearGradient>
  </defs>
  
  <!-- 背景 -->
  <rect width="400" height="300" fill="url(#bg)"/>
  
  <!-- 主要图标 - 厨师帽和餐具 -->
  <g transform="translate(200,150)">
    <!-- 厨师帽 -->
    <ellipse cx="0" cy="-20" rx="45" ry="15" fill="#64748b" opacity="0.3"/>
    <path d="M -35,-35 Q -35,-55 -20,-60 Q -10,-65 0,-65 Q 10,-65 20,-60 Q 35,-55 35,-35 L 35,-20 Q 35,-15 30,-15 L -30,-15 Q -35,-15 -35,-20 Z" fill="#64748b" opacity="0.4"/>
    
    <!-- 餐具 -->
    <g transform="translate(-60,20)">
      <!-- 叉子 -->
      <rect x="-2" y="0" width="4" height="40" fill="#64748b" opacity="0.3"/>
      <rect x="-8" y="-5" width="4" height="15" fill="#64748b" opacity="0.3"/>
      <rect x="-2" y="-5" width="4" height="15" fill="#64748b" opacity="0.3"/>
      <rect x="4" y="-5" width="4" height="15" fill="#64748b" opacity="0.3"/>
    </g>
    
    <g transform="translate(60,20)">
      <!-- 勺子 -->
      <rect x="-2" y="0" width="4" height="35" fill="#64748b" opacity="0.3"/>
      <ellipse cx="0" cy="-8" rx="8" ry="12" fill="#64748b" opacity="0.3"/>
    </g>
  </g>
  
  <!-- 装饰性元素 -->
  <circle cx="80" cy="80" r="3" fill="#10b981" opacity="0.2"/>
  <circle cx="320" cy="220" r="4" fill="#10b981" opacity="0.2"/>
  <circle cx="350" cy="100" r="2" fill="#10b981" opacity="0.2"/>
  <circle cx="50" cy="250" r="3" fill="#10b981" opacity="0.2"/>
  
  <!-- 文字 -->
  <text x="200" y="220" text-anchor="middle" font-family="system-ui, sans-serif" font-size="16" fill="#64748b" opacity="0.5">美味菜谱</text>
</svg>